<?xml version="1.0" encoding="utf-8"?>
<!-- Generator: Adobe Illustrator 25.2.0, SVG Export Plug-In . SVG Version: 6.00 Build 0)  -->
<svg version="1.1" id="Livello_1" xmlns="http://www.w3.org/2000/svg" xmlns:xlink="http://www.w3.org/1999/xlink" x="0px" y="0px"
	 viewBox="0 0 17.4 17.1" style="enable-background:new 0 0 17.4 17.1;" xml:space="preserve">
<style type="text/css">
	.st0{fill:#000000;}
</style>
<g id="Livello_5">
	<path class="st0" d="M14.2,8.6c0-0.4-0.3-0.7-0.6-0.7H9.6V4v0c0-0.4-0.3-0.7-0.7-0.7C8.6,3.4,8.3,3.7,8.3,4v4.6
		c0,0.4,0.3,0.7,0.7,0.7h4.6C13.9,9.3,14.2,9,14.2,8.6 M16.1,8.6c0,4-3.2,7.2-7.2,7.2c-4,0-7.2-3.2-7.2-7.2S5,1.4,8.9,1.4
		C12.9,1.4,16.1,4.6,16.1,8.6 M17.4,8.6c0-4.7-3.8-8.5-8.5-8.5c-4.7,0-8.5,3.8-8.5,8.5s3.8,8.5,8.5,8.5
		C13.6,17.1,17.4,13.3,17.4,8.6"/>
</g>
<g id="Livello_1_1_">
</g>
</svg>
