<svg clip-rule="evenodd" fill-rule="evenodd" stroke-miterlimit="2" viewBox="0 0 44 70" xmlns="http://www.w3.org/2000/svg"><g transform="translate(-437.363 -234.474)"><path d="m-12.2538-4.6863h850.394v850.393h-850.394z" fill="#fff" fill-rule="nonzero"/><path d="m470.674 238.518h-23.098c-3.392 0-6.169 2.776-6.169 6.169v49.35c0 3.393 2.777 6.169 6.169 6.169h23.098c3.392 0 6.168-2.776 6.168-6.169v-49.35c0-3.393-2.776-6.169-6.168-6.169z" fill="#fff" fill-rule="nonzero"/><g fill="none"><path d="m470.674 238.518h-23.098c-3.392 0-6.169 2.776-6.169 6.169v49.35c0 3.393 2.777 6.169 6.169 6.169h23.098c3.392 0 6.168-2.776 6.168-6.169v-49.35c0-3.393-2.776-6.169-6.168-6.169z" stroke="#000" stroke-width="3.62"/><path d="m471.435 247.223h-24.62"/><path d="m471.435 247.223h-24.62" stroke="#000" stroke-linejoin="round" stroke-width="3.62"/><path d="m446.815 291.501h24.62"/><path d="m446.815 291.501h24.62" stroke="#000" stroke-linejoin="round" stroke-width="3.62"/></g></g></svg>