<svg clip-rule="evenodd" fill-rule="evenodd" stroke-miterlimit="2" viewBox="0 0 55 75" xmlns="http://www.w3.org/2000/svg"><g transform="translate(-431.636 -544.013)"><path d="m-12.2538-4.6863h850.394v850.393h-850.394z" fill="#fff" fill-rule="nonzero"/><path d="m459.125 582.757c-6.216 0-11.256-5.04-11.256-11.256 0-6.215 5.04-11.254 11.256-11.254 6.217 0 11.256 5.039 11.256 11.254 0 6.216-5.039 11.256-11.256 11.256zm-1.751 30.92c.409.518 1.04.852 1.751.852.712 0 1.344-.334 1.752-.852 5.449-7.212 21.692-27.998 21.692-42.176 0-12.948-10.496-23.444-23.444-23.444s-23.445 10.496-23.445 23.444c0 14.177 16.244 34.964 21.694 42.176z" fill="#fff" fill-rule="nonzero"/><path d="m459.125 582.757c-6.216 0-11.256-5.04-11.256-11.256 0-6.215 5.04-11.254 11.256-11.254 6.217 0 11.256 5.039 11.256 11.254 0 6.216-5.039 11.256-11.256 11.256zm-1.751 30.92c.409.518 1.04.852 1.751.852.712 0 1.344-.334 1.752-.852 5.449-7.212 21.692-27.998 21.692-42.176 0-12.948-10.496-23.444-23.444-23.444s-23.445 10.496-23.445 23.444c0 14.177 16.244 34.964 21.694 42.176z" fill="none" stroke="#000" stroke-width="3.62"/></g></svg>