<?xml version="1.0" encoding="UTF-8" standalone="no"?>
<!DOCTYPE svg PUBLIC "-//W3C//DTD SVG 1.1//EN" "http://www.w3.org/Graphics/SVG/1.1/DTD/svg11.dtd">
<svg width="100%" height="100%" viewBox="0 0 65 70" version="1.1" xmlns="http://www.w3.org/2000/svg" xmlns:xlink="http://www.w3.org/1999/xlink" xml:space="preserve" xmlns:serif="http://www.serif.com/" style="fill-rule:evenodd;clip-rule:evenodd;stroke-linejoin:round;stroke-miterlimit:2;">
    <g transform="matrix(1,0,0,1,-2.92828,-0.148418)">
        <g transform="matrix(0.087238,0,0,0.087238,-9.634,-19.7837)">
            <path d="M832.003,292.48L720,292.48L720,244.48C720,235.643 712.837,228.48 704,228.48C695.163,228.48 688,235.643 688,244.48L688,292.48L336,292.48L336,244.48C336,235.643 328.837,228.48 320,228.48C311.163,228.48 304,235.643 304,244.48L304,292.48L192,292.48C165.503,292.511 144.031,313.983 144,340.477L144,980.48C144.031,1006.98 165.503,1028.45 191.997,1028.48L832,1028.48C858.497,1028.45 879.969,1006.98 880,980.483L880,340.48C879.969,313.983 858.497,292.511 832.003,292.48ZM191.999,324.48L304,324.48L304,372.48C304,381.317 311.163,388.48 320,388.48C328.837,388.48 336,381.317 336,372.48L336,324.48L688,324.48L688,372.48C688,381.317 695.163,388.48 704,388.48C712.837,388.48 720,381.317 720,372.48L720,324.48L832,324.48C840.833,324.49 847.99,331.647 848,340.479L848,484.48L176,484.48L176,340.48C176.01,331.647 183.167,324.49 191.999,324.48ZM832.001,996.48L192,996.48C183.167,996.47 176.01,989.313 176,980.481L176,516.48L848,516.48L848,980.48C847.99,989.313 840.833,996.47 832.001,996.48Z" style="fill:rgb(149,149,149);fill-rule:nonzero;"/>
        </g>
    </g>
</svg>
