<svg xmlns="http://www.w3.org/2000/svg"><symbol id="instgram" viewBox="0 0 70 70"><path d="M35 18.958c-8.86 0-16.042 7.182-16.042 16.042 0 8.86 7.182 16.042 16.042 16.042 8.86 0 16.042-7.182 16.042-16.042-.01-8.855-7.187-16.031-16.041-16.042H35zm0 29.167c-7.249 0-13.125-5.876-13.125-13.125S27.751 21.875 35 21.875 48.125 27.751 48.125 35c-.008 7.245-5.88 13.117-13.124 13.125H35zM51.043 0H18.958C8.493.012.012 8.493 0 18.957v32.085C.012 61.507 8.493 69.988 18.957 70h32.085C61.507 69.988 69.988 61.507 70 51.043V18.958C69.988 8.493 61.507.012 51.043 0zm16.04 51.042c-.01 8.855-7.186 16.031-16.04 16.041H18.958c-8.855-.01-16.031-7.186-16.041-16.04V18.958c.01-8.855 7.186-16.031 16.04-16.041h32.085c8.855.01 16.031 7.186 16.041 16.04v32.085zm-10.208-35a2.917 2.917 0 1 1-5.833 0 2.917 2.917 0 0 1 5.833 0z"/></symbol><symbol id="calendar" viewBox="0 0 70 70"><path d="M65.435 5.583H54.783V1.396C54.783.625 54.1 0 53.26 0s-1.522.625-1.522 1.396v4.187H18.261V1.396C18.26.625 17.58 0 16.739 0c-.84 0-1.522.625-1.522 1.396v4.187H4.565C2.045 5.586.003 7.46 0 9.77v55.833c.003 2.312 2.045 4.185 4.565 4.187h60.87c2.52-.002 4.562-1.875 4.565-4.187V9.771c-.003-2.312-2.045-4.185-4.565-4.188zM4.565 8.375h10.652v4.187c0 .771.682 1.396 1.522 1.396s1.522-.625 1.522-1.396V8.375h33.478v4.187c0 .771.681 1.396 1.522 1.396.84 0 1.522-.625 1.522-1.396V8.375h10.652c.84 0 1.52.625 1.521 1.396v12.562H3.043V9.771c.001-.77.682-1.395 1.522-1.396zm60.87 58.624H4.565c-.84-.001-1.52-.625-1.522-1.396V25.125h63.913v40.478c0 .77-.681 1.395-1.521 1.396z"/></symbol><symbol id="globe" viewBox="0 0 70 70"><path d="M68.025 46.59C69.276 43.139 70 39.155 70 35c0-4.162-.727-8.154-2.06-11.857l.077.244a1.373 1.373 0 0 0-.06-.17l.003.008C62.98 9.572 50.108 0 35 0 19.893 0 7.022 9.57 2.119 22.98l-.078.243a1.291 1.291 0 0 0-.06.166l-.002.01C.725 26.854 0 30.843 0 35c0 4.169.729 8.168 2.066 11.876l-.076-.244c.017.057.033.103.052.148l-.004-.01C7.018 60.426 19.891 70 35 70c15.106 0 27.977-9.57 32.88-22.978l.078-.243c.024-.051.046-.114.065-.179l.002-.01zM35 65.81c-5.052-4.738-8.787-11.107-10.83-18.21h21.66C43.787 54.703 40.052 61.072 35 65.81zM23.46 44.8c-.674-2.946-1.06-6.328-1.06-9.8 0-3.473.386-6.855 1.118-10.106l-.058.306h23.08c.674 2.945 1.06 6.327 1.06 9.8a45.97 45.97 0 0 1-1.118 10.106l.058-.306H23.46zM2.8 35v-.022c0-3.493.558-6.856 1.59-10.005l-.063.227h16.24c-.615 2.946-.967 6.332-.967 9.8 0 3.468.352 6.854 1.022 10.123l-.055-.323H4.327C3.358 41.878 2.8 38.515 2.8 35.021V35zM35 4.19c5.052 4.738 8.787 11.107 10.83 18.21H24.17C26.214 15.297 29.949 8.928 35 4.19zM49.434 25.2h16.24c.968 2.928 1.526 6.299 1.526 9.8a32.19 32.19 0 0 1-1.591 10.028l.064-.228h-16.24c.615-2.946.967-6.332.967-9.8 0-3.468-.352-6.854-1.022-10.123l.056.323zm15.197-2.8H48.777C46.78 14.872 42.991 8.14 37.713 2.915A32.337 32.337 0 0 1 64.55 22.192l.081.208zM32.287 2.915C27.01 8.14 23.22 14.872 21.222 22.4H5.37C10.057 11.615 20.167 3.987 32.164 2.924l.123-.009zM5.37 47.6h15.853c1.998 7.528 5.787 14.26 11.065 19.484A32.337 32.337 0 0 1 5.45 47.808l-.081-.208zm32.344 19.484C42.99 61.86 46.78 55.128 48.777 47.6h15.854c-4.688 10.785-14.798 18.412-26.795 19.476l-.123.008z"/></symbol><symbol id="mail" viewBox="0 0 70 70"><path d="M34.997 0C15.667.004 0 15.672 0 35c0 19.33 15.671 35 35.003 35a34.844 34.844 0 0 0 19.475-5.913l-.126.08a1.4 1.4 0 1 0-1.555-2.329l.005-.003c-5.008 3.365-11.174 5.37-17.808 5.37-17.787 0-32.206-14.417-32.206-32.202C2.788 17.218 17.208 2.8 34.994 2.8S67.198 17.216 67.2 35c0 10.963-5.264 12.6-8.401 12.6-3.137 0-8.4-1.637-8.4-12.6V21a1.4 1.4 0 0 0-2.801 0v5.162c-2.821-3.983-7.412-6.552-12.603-6.552-8.504 0-15.397 6.892-15.397 15.395 0 8.502 6.893 15.395 15.397 15.395 5.854 0 10.945-3.267 13.549-8.077l.04-.081C50.21 47.452 53.78 50.4 58.8 50.4 65.813 50.4 70 44.643 70 35 69.978 15.68 54.32.022 34.999 0h-.002zm0 47.6c-6.96 0-12.601-5.641-12.601-12.6s5.641-12.6 12.6-12.6c6.96 0 12.602 5.641 12.602 12.6-.008 6.956-5.645 12.592-12.6 12.6h-.001z"/></symbol><symbol id="map" viewBox="0 0 70 70"><path d="M35 15.556c-8.284 0-15 5.223-15 11.666 0 6.444 6.716 11.667 15 11.667 8.284 0 15-5.223 15-11.667-.01-6.44-6.72-11.659-14.999-11.666zm0 20.74c-6.443 0-11.667-4.062-11.667-9.074 0-5.011 5.224-9.074 11.667-9.074 6.444 0 11.667 4.063 11.667 9.074-.008 5.01-5.226 9.068-11.666 9.074zM35 0C15.68.018.023 12.195 0 27.22v.002c0 9.858 5.905 20.35 17.076 30.342 5.06 4.53 10.621 8.54 16.69 12.048l.278.154c.267.146.598.234.956.234s.69-.088.961-.237l-.005.003c6.347-3.662 11.908-7.672 16.86-12.103l.109-.1C64.095 47.573 70 37.08 70 27.224 69.978 12.194 54.321.017 35.002 0H35zm15.46 55.817c-4.664 4.145-9.725 7.845-15.213 11.135l-.247.143c-5.735-3.433-10.796-7.133-15.355-11.183l-.105-.095C12.147 49.193 3.333 38.855 3.333 27.222 3.333 13.62 17.511 2.592 35 2.592c17.49 0 31.667 11.028 31.667 24.63 0 11.633-8.813 21.971-16.207 28.595z"/></symbol><symbol id="linkedin" viewBox="0 0 70 70"><path d="M65.435 0H4.565A4.57 4.57 0 0 0 0 4.565v60.87A4.57 4.57 0 0 0 4.565 70h60.87A4.57 4.57 0 0 0 70 65.435V4.565A4.57 4.57 0 0 0 65.435 0zm1.521 65.435a1.523 1.523 0 0 1-1.521 1.522H4.565a1.523 1.523 0 0 1-1.522-1.522V4.565c.001-.84.682-1.52 1.522-1.522h60.87c.84.001 1.52.682 1.521 1.522v60.87zM21.304 28.913v24.348a1.522 1.522 0 1 1-3.043 0V28.913a1.522 1.522 0 1 1 3.043 0zm33.479 10.653V53.26a1.522 1.522 0 1 1-3.044 0V39.566a9.13 9.13 0 0 0-18.26 0V53.26a1.522 1.522 0 1 1-3.044 0V28.913a1.522 1.522 0 1 1 3.043 0v2.613a12.146 12.146 0 0 1 9.138-4.134c6.72 0 12.167 5.447 12.167 12.166v.008zM22.826 16.739a3.043 3.043 0 1 1-6.087 0 3.043 3.043 0 0 1 6.087 0z"/></symbol><symbol id="phone" viewBox="0 0 70 70"><path d="M43.661 3.886a1.464 1.464 0 0 1 1.8-1.032l-.011-.002C56.05 5.77 64.23 13.95 67.097 24.334l.051.216a1.46 1.46 0 0 1-2.82.765l-.002-.01c-2.64-9.59-10.04-16.991-19.435-19.584l-.196-.046a1.464 1.464 0 0 1-1.031-1.8l-.003.01zm-1.991 13.08c5.552 1.528 9.836 5.812 11.338 11.251l.027.113a1.46 1.46 0 1 0 2.82-.765l.002.01c-1.806-6.562-6.87-11.626-13.299-13.4l-.134-.032a1.46 1.46 0 0 0-.765 2.82l.01.002zm28.299 36.446C68.725 62.81 60.767 69.99 51.129 70 22.936 70 0 47.064 0 18.871.01 9.233 7.189 1.275 16.491.041l.097-.01a4.39 4.39 0 0 1 4.545 2.598l.011.029 7.337 17.12c.225.509.356 1.102.356 1.726 0 .893-.268 1.724-.727 2.416l.01-.016-6.076 9.283a1.433 1.433 0 0 0-.103 1.419l-.003-.009c2.948 5.922 7.647 10.601 13.413 13.447l.172.076a1.43 1.43 0 0 0 1.419-.12l-.005.004 9.143-6.097a4.33 4.33 0 0 1 2.43-.738c.624 0 1.218.131 1.755.367l-.028-.01 17.105 7.33C68.92 49.546 70 51.091 70 52.89c0 .185-.011.366-.033.544l.002-.021zm-3.778-1.87L49.087 44.21a1.452 1.452 0 0 0-1.391.13l.004-.003-9.143 6.097a4.331 4.331 0 0 1-2.43.739 4.345 4.345 0 0 1-1.9-.434l.026.012c-6.531-3.214-11.699-8.36-14.856-14.685l-.084-.188a4.308 4.308 0 0 1-.43-1.892c0-.893.267-1.724.727-2.416l-.01.016 6.075-9.283a1.455 1.455 0 0 0 .117-1.386l.004.01-7.337-17.12a1.464 1.464 0 0 0-1.33-.889h-.002c-.06 0-.12.004-.18.012h.007C9.002 3.982 2.93 10.716 2.922 18.87c0 26.582 21.625 48.207 48.207 48.207 8.154-.007 14.888-6.08 15.932-13.95l.01-.083a1.454 1.454 0 0 0-.87-1.5l-.01-.004z"/></symbol><symbol id="facebook" viewBox="0 0 70 70"><path d="M70 35C70 15.67 54.33 0 35 0S0 15.67 0 35c0 19.328 15.668 34.997 34.996 35h.008C54.324 69.975 69.977 54.32 70 35.002V35zM36.4 67.167V42h9.8a1.4 1.4 0 1 0 0-2.8h-9.8v-9.8a7.008 7.008 0 0 1 7-7H49a1.4 1.4 0 1 0 0-2.8h-5.6c-5.41.007-9.794 4.39-9.8 9.8v9.8h-9.8a1.4 1.4 0 1 0 0 2.8h9.8v25.167C16.43 66.397 2.8 52.29 2.8 34.998c0-17.784 14.416-32.2 32.2-32.2 17.784 0 32.2 14.416 32.2 32.2 0 17.291-13.63 31.4-30.73 32.167l-.07.002z"/></symbol></svg>