<?xml version="1.0" encoding="UTF-8" standalone="no"?>
<!DOCTYPE svg PUBLIC "-//W3C//DTD SVG 1.1//EN" "http://www.w3.org/Graphics/SVG/1.1/DTD/svg11.dtd">
<svg width="100%" height="100%" viewBox="0 0 70 70" version="1.1" xmlns="http://www.w3.org/2000/svg" xmlns:xlink="http://www.w3.org/1999/xlink" xml:space="preserve" xmlns:serif="http://www.serif.com/" style="fill-rule:evenodd;clip-rule:evenodd;stroke-linejoin:round;stroke-miterlimit:2;">
    <g id="ph-info-thin" transform="matrix(0.0875,0,0,0.0875,-9.8,-22.7919)">
        <path d="M512,260.479C291.086,260.479 112,439.565 112,660.479C112,881.393 291.086,1060.48 512,1060.48C732.914,1060.48 912,881.393 912,660.479C911.743,439.668 732.81,260.735 512.024,260.479L512,260.479ZM512,1028.48C308.759,1028.48 144,863.72 144,660.479C144,457.238 308.759,292.479 512,292.479C715.241,292.479 880,457.238 880,660.479C879.762,863.624 715.145,1028.24 512.023,1028.48L512,1028.48ZM560,852.479C560,861.315 552.836,868.479 544,868.479L512,868.479C503.164,868.479 496,861.315 496,852.479L496,644.479L480,644.479C471.163,644.479 464,637.316 464,628.479C464,619.642 471.163,612.479 480,612.479L512,612.479C520.836,612.479 528,619.643 528,628.479L528,836.479L544,836.479C552.836,836.479 560,843.643 560,852.479ZM489.375,507.107C483.584,501.316 480.002,493.316 480.002,484.479C480.002,466.805 494.329,452.478 512.003,452.478C529.677,452.478 544.003,466.805 544.004,484.478L544.004,484.486C543.998,502.156 529.673,516.478 512.002,516.478C503.166,516.478 495.166,512.897 489.375,507.107Z" style="fill:rgb(149,149,149);fill-rule:nonzero;"/>
    </g>
</svg>
