<?xml version="1.0" encoding="UTF-8" standalone="no"?>
<!DOCTYPE svg PUBLIC "-//W3C//DTD SVG 1.1//EN" "http://www.w3.org/Graphics/SVG/1.1/DTD/svg11.dtd">
<svg width="100%" height="100%" viewBox="0 0 70 70" version="1.1" xmlns="http://www.w3.org/2000/svg" xmlns:xlink="http://www.w3.org/1999/xlink" xml:space="preserve" xmlns:serif="http://www.serif.com/" style="fill-rule:evenodd;clip-rule:evenodd;stroke-linejoin:round;stroke-miterlimit:2;">
    <g id="ph-map-pin-thin" transform="matrix(0.0808951,0,0,0.0810185,-6.23746,-18.5111)">
        <path d="M511.999,420.48C432.47,420.48 367.999,484.951 367.999,564.48C367.999,644.009 432.47,708.48 511.999,708.48C591.528,708.48 655.999,644.009 655.999,564.48C655.907,484.988 591.491,420.573 512.008,420.48L511.999,420.48ZM511.999,676.48C450.143,676.48 399.999,626.336 399.999,564.48C399.999,502.624 450.143,452.48 511.999,452.48C573.855,452.48 623.999,502.624 623.999,564.48C623.927,626.307 573.826,676.408 512.006,676.48L511.999,676.48ZM511.999,228.48C326.519,228.697 176.216,379 175.999,564.459L175.999,564.48C175.999,686.152 232.683,815.652 339.925,938.98C388.507,994.902 441.893,1044.39 500.149,1087.69L502.824,1089.59C505.381,1091.4 508.564,1092.48 512,1092.48C515.436,1092.48 518.619,1091.4 521.226,1089.55L521.176,1089.59C582.107,1044.39 635.492,994.903 683.034,940.203L684.074,938.98C791.316,815.652 848,686.152 848,564.48C847.783,379 697.48,228.697 512.021,228.48L511.999,228.48ZM660.413,917.417C615.641,968.587 567.054,1014.25 514.372,1054.86L511.999,1056.62C456.944,1014.25 408.357,968.587 364.594,918.594L363.585,917.418C292.608,835.664 207.999,708.066 207.999,564.481C207.999,396.586 344.104,260.481 511.999,260.481C679.894,260.481 815.999,396.586 815.999,564.481C815.999,708.067 731.39,835.665 660.413,917.418L660.413,917.417Z" style="fill:rgb(149,149,149);fill-rule:nonzero;"/>
    </g>
</svg>
